<?xml version="1.0" encoding="utf-8"?>
<!-- Generator: Adobe Illustrator 16.0.0, SVG Export Plug-In . SVG Version: 6.00 Build 0)  -->
<!DOCTYPE svg PUBLIC "-//W3C//DTD SVG 1.1//EN" "http://www.w3.org/Graphics/SVG/1.1/DTD/svg11.dtd">
<svg version="1.1" id="Calque_1" xmlns="http://www.w3.org/2000/svg" xmlns:xlink="http://www.w3.org/1999/xlink" x="0px" y="0px"
	 width="48.316px" height="26.785px" viewBox="0 0 48.316 26.785" enable-background="new 0 0 48.316 26.785" xml:space="preserve">
<polygon fill="#FFFFFF" points="36.344,9.062 41.408,13.885 36.344,18.707 "/>
<path fill="#FFFFFF" d="M0,19.81c0-6.317,0-12.5,0-18.793c4.092,0.699,8.076,1.51,11.534,3.888c1.668,1.147,2.503,2.7,2.475,4.804
	c-0.068,5.189-0.021,10.379-0.021,15.822C9.796,22.234,5.342,19.974,0,19.81z M1.924,12.783c-0.358,0.863,0.217,0.876,0.708,1.054
	c2.381,0.864,4.765,1.723,7.111,2.674c0.762,0.309,1.413,0.885,2.115,1.34c0.084-0.074,0.17-0.148,0.254-0.223
	c-0.272-0.363-0.477-0.822-0.828-1.076C8.5,14.537,5.302,13.53,1.924,12.783z M1.976,3.848C1.884,3.956,1.79,4.063,1.698,4.17
	c0.203,0.203,0.375,0.528,0.614,0.589c3.406,0.861,6.708,1.954,9.632,4.098c-0.077-0.43-0.171-0.897-0.456-1.109
	C8.654,5.625,5.378,4.575,1.976,3.848z M1.952,6.824C1.875,6.892,1.799,6.96,1.722,7.029c0.188,0.25,0.336,0.669,0.571,0.725
	c3.431,0.822,6.717,1.966,9.682,4.058c-0.131-0.481-0.311-0.955-0.654-1.205C8.515,8.564,5.291,7.544,1.952,6.824z M1.947,15.792
	c-0.079,0.084-0.158,0.168-0.237,0.252c0.206,0.229,0.371,0.58,0.625,0.668c0.873,0.299,1.785,0.484,2.669,0.756
	c2.462,0.75,4.781,1.805,6.944,3.311c-0.088-0.441-0.203-0.898-0.496-1.115C8.613,17.56,5.346,16.503,1.947,15.792z M1.966,9.823
	c-0.092,0.114-0.184,0.227-0.276,0.341c0.214,0.198,0.396,0.485,0.647,0.576c0.609,0.219,1.256,0.333,1.88,0.513
	c2.737,0.791,5.345,1.864,7.724,3.565c-0.059-0.418-0.14-0.859-0.403-1.058C8.69,11.606,5.393,10.546,1.966,9.823z"/>
<path fill="#FFFFFF" d="M29.196,1c0,6.368,0,12.552,0,18.802c-5.303,0.189-9.768,2.375-13.962,5.729c0-0.535,0-0.863,0-1.191
	c0-4.957,0.041-9.914-0.021-14.871c-0.023-1.914,0.764-3.309,2.225-4.404c2.48-1.86,5.388-2.697,8.341-3.401
	C26.873,1.402,27.99,1.231,29.196,1z M17.493,14.783c2.907-2.004,5.893-3.296,9.212-3.743c0-2.484,0-4.872,0-7.387
	c-2.887,0.514-5.702,1.004-7.974,2.895c-0.579,0.482-1.124,1.33-1.183,2.05C17.386,10.573,17.493,12.571,17.493,14.783z
	 M27.272,12.746c-3.413,0.756-6.729,1.781-9.582,3.943c-0.254,0.193-0.326,0.621-0.483,0.941c1.072-0.43,1.888-1.102,2.823-1.475
	c2.191-0.875,4.438-1.615,6.669-2.391C27.16,13.604,27.703,13.561,27.272,12.746z M17.15,20.576
	c0.088,0.076,0.176,0.152,0.265,0.229c2.803-2.184,6.058-3.297,9.445-4.121c0.262-0.063,0.439-0.471,0.656-0.719
	c-0.08-0.078-0.162-0.156-0.244-0.234c-3.331,0.73-6.555,1.738-9.361,3.773C17.575,19.748,17.4,20.212,17.15,20.576z"/>
</svg>
