<?xml version="1.0" encoding="utf-8"?>
<!-- Generator: Adobe Illustrator 16.0.0, SVG Export Plug-In . SVG Version: 6.00 Build 0)  -->
<!DOCTYPE svg PUBLIC "-//W3C//DTD SVG 1.1//EN" "http://www.w3.org/Graphics/SVG/1.1/DTD/svg11.dtd">
<svg version="1.1" id="Calque_1" xmlns="http://www.w3.org/2000/svg" xmlns:xlink="http://www.w3.org/1999/xlink" x="0px" y="0px"
	 width="48.317px" height="26.784px" viewBox="0 0 48.317 26.784" enable-background="new 0 0 48.317 26.784" xml:space="preserve">
<g>
	<path fill="#FFFFFF" d="M44.682,3.091l-0.109-0.243L44.42,2.727C44.282,2.615,40.985,0,36.477,0c-2.396,0-4.77,0.748-7.056,2.222
		h-0.563C26.571,0.748,24.198,0,21.801,0c-4.506,0-7.805,2.615-8.024,2.792l-0.153,0.122L10.05,26.035l-0.088,0.749l1.882-0.045
		l0.077-0.547c0.189-1.058,0.724-1.872,1.556-2.454l-0.435,2.263l0.855-0.629c4.24-3.117,9.96-0.719,10.019-0.693l0.371-0.625
		c-0.058-0.024-5.553-2.34-10.085,0.242l0.208-1.085c1.507-0.745,3.127-1.146,4.84-1.146c4.094,0,7.371,2.158,7.373,2.158
		c0.747,0.58,1.025,1.082,1.028,1.082l0.46,1.146l2.062-0.029l0.467-1.14c0.019-0.052,0.198-0.525,0.893-0.964
		c2.307-1.455,4.734-2.192,7.216-2.192c2.488,0,4.406,0.751,5.301,1.177l0.189,0.992c-4.533-2.58-10.025-0.267-10.085-0.242
		l0.371,0.625c0.057-0.023,5.769-2.43,10.018,0.693l0.856,0.629l-0.404-2.102c1.009,0.875,1.291,1.871,1.363,2.277l0.079,0.563
		l1.882,0.043L44.682,3.091z M21.766,1.443c2.011,0,4.029,0.646,6.002,1.921l-0.155,19.123c-1.499-1.23-4.075-2.449-8.396-2.449
		c-3.244,0-5.333,0.887-6.67,1.939L15.28,3.593C16.066,3.04,18.605,1.443,21.766,1.443z M45.731,21.978
		c-1.336-1.053-3.426-1.939-6.67-1.939c-4.311,0-6.887,1.209-8.395,2.449L30.51,3.365c1.974-1.275,3.992-1.921,6.003-1.921
		c3.16,0,5.7,1.596,6.485,2.15L45.731,21.978z"/>
	<path fill="#FFFFFF" d="M42.856,5.511l-0.061-0.6c-1.171-0.675-3.592-1.798-6.505-1.607l0.033,0.454
		C39.478,3.517,41.987,4.939,42.856,5.511z"/>
	<path fill="#FFFFFF" d="M36.468,5.715l0.036,0.478c3.118-0.244,5.627,1.14,6.601,1.777l-0.063-0.624
		C41.803,6.632,39.37,5.52,36.468,5.715z"/>
	<path fill="#FFFFFF" d="M36.654,8.212l0.037,0.503c3.095-0.249,5.606,1.106,6.671,1.801L43.297,9.87
		C41.998,9.118,39.551,8.013,36.654,8.212z"/>
	<path fill="#FFFFFF" d="M31.547,12.72l0.012,0.693c5.476-3.701,10.346-1.293,12.08-0.176l-0.068-0.668
		C41.473,11.372,36.731,9.48,31.547,12.72z"/>
	<path fill="#FFFFFF" d="M31.591,15.202l0.013,0.727c5.504-3.817,10.426-1.447,12.281-0.252l-0.07-0.691
		C41.622,13.73,36.821,11.849,31.591,15.202z"/>
	<path fill="#FFFFFF" d="M31.644,18.261l0.015,0.77c5.549-3.971,10.539-1.631,12.531-0.349l-0.072-0.722
		C41.809,16.636,36.934,14.765,31.644,18.261z"/>
	<path fill="#FFFFFF" d="M26.928,5.499l0.01-0.595C21.831,1.93,17.22,3.922,15.474,4.921l-0.061,0.603
		C16.659,4.726,21.519,2.099,26.928,5.499z"/>
	<path fill="#FFFFFF" d="M26.883,8.028l0.011-0.625C21.75,4.326,17.09,6.294,15.228,7.358l-0.063,0.627
		C16.579,7.085,21.464,4.527,26.883,8.028z"/>
	<path fill="#FFFFFF" d="M20.84,8.19c-2.556,0.02-4.688,1.002-5.868,1.686l-0.066,0.656c0.969-0.619,3.17-1.799,5.893-1.818
		L20.84,8.19z"/>
	<path fill="#FFFFFF" d="M20.624,10.854c-2.549,0.021-4.691,0.998-5.924,1.715l-0.07,0.688c1.039-0.664,3.238-1.831,5.95-1.851
		L20.624,10.854z"/>
	<path fill="#FFFFFF" d="M20.429,13.242c-2.543,0.021-4.698,0.997-5.974,1.741L14.382,15.7c1.099-0.704,3.299-1.86,6-1.881
		L20.429,13.242z"/>
	<path fill="#FFFFFF" d="M26.69,19.076l0.014-0.769c-5.323-3.564-10.237-1.672-12.551-0.342l-0.075,0.738
		C16.082,17.441,21.171,15.08,26.69,19.076z"/>
	<path fill="#FFFFFF" d="M35.609,3.371c-3.075,0.48-4.393,1.592-4.393,1.592l0.12,5.753c1.832-1.603,4.635-1.917,4.635-1.917
		L35.609,3.371z"/>
	<path fill="#FFFFFF" d="M21.244,13.848c0,0,2.736,0.064,5.586,2.182l0.125-5.983c0,0-3.051-1.916-5.297-1.832L21.244,13.848z"/>
</g>
<polygon fill="#FFFFFF" points="5.066,18.706 0,13.884 5.066,9.062 "/>
</svg>
