<?xml version="1.0" encoding="utf-8"?>
<!-- Generator: Adobe Illustrator 16.0.0, SVG Export Plug-In . SVG Version: 6.00 Build 0)  -->
<!DOCTYPE svg PUBLIC "-//W3C//DTD SVG 1.1//EN" "http://www.w3.org/Graphics/SVG/1.1/DTD/svg11.dtd">
<svg version="1.1" id="Calque_1" xmlns="http://www.w3.org/2000/svg" xmlns:xlink="http://www.w3.org/1999/xlink" x="0px" y="0px"
	 width="48.316px" height="26.785px" viewBox="0 0 48.316 26.785" enable-background="new 0 0 48.316 26.785" xml:space="preserve">
<polygon fill="#FFFFFF" points="5.066,18.707 0,13.884 5.066,9.062 "/>
<path fill="#FFFFFF" d="M12.213,19.81c0-6.317,0-12.5,0-18.793c4.092,0.699,8.076,1.51,11.534,3.888
	c1.668,1.147,2.503,2.7,2.475,4.804c-0.068,5.189-0.021,10.379-0.021,15.822C22.009,22.234,17.554,19.974,12.213,19.81z
	 M14.136,12.783c-0.358,0.863,0.217,0.876,0.708,1.054c2.381,0.864,4.765,1.723,7.111,2.674c0.762,0.309,1.413,0.885,2.115,1.34
	c0.084-0.074,0.17-0.148,0.254-0.223c-0.272-0.363-0.477-0.822-0.828-1.076C20.712,14.537,17.515,13.53,14.136,12.783z
	 M14.189,3.848c-0.093,0.107-0.186,0.215-0.279,0.322c0.203,0.203,0.375,0.528,0.614,0.589c3.406,0.861,6.708,1.954,9.632,4.098
	c-0.077-0.43-0.171-0.897-0.456-1.109C20.866,5.625,17.59,4.575,14.189,3.848z M14.164,6.824c-0.077,0.068-0.153,0.137-0.229,0.205
	c0.188,0.25,0.336,0.669,0.571,0.725c3.431,0.822,6.717,1.966,9.682,4.058c-0.131-0.481-0.311-0.955-0.654-1.205
	C20.728,8.564,17.503,7.544,14.164,6.824z M14.159,15.792c-0.079,0.084-0.158,0.168-0.237,0.252c0.206,0.229,0.371,0.58,0.625,0.668
	c0.873,0.299,1.785,0.484,2.669,0.756c2.462,0.75,4.781,1.805,6.944,3.311c-0.088-0.441-0.203-0.898-0.496-1.115
	C20.825,17.56,17.559,16.503,14.159,15.792z M14.178,9.823c-0.092,0.114-0.184,0.227-0.276,0.341
	c0.214,0.198,0.396,0.485,0.647,0.576c0.609,0.219,1.256,0.333,1.88,0.513c2.737,0.791,5.345,1.864,7.724,3.565
	c-0.059-0.418-0.14-0.859-0.403-1.058C20.903,11.606,17.606,10.546,14.178,9.823z"/>
<path fill="#FFFFFF" d="M41.408,1c0,6.368,0,12.552,0,18.802c-5.304,0.189-9.769,2.375-13.963,5.729c0-0.535,0-0.863,0-1.191
	c0-4.957,0.041-9.914-0.021-14.871c-0.023-1.914,0.764-3.309,2.225-4.404c2.48-1.86,5.388-2.697,8.341-3.401
	C39.086,1.402,40.203,1.231,41.408,1z M29.705,14.783c2.907-2.004,5.893-3.296,9.213-3.743c0-2.484,0-4.872,0-7.387
	c-2.888,0.514-5.702,1.004-7.975,2.895c-0.579,0.482-1.124,1.33-1.183,2.05C29.599,10.573,29.705,12.571,29.705,14.783z
	 M39.485,12.746c-3.413,0.756-6.729,1.781-9.582,3.943c-0.254,0.193-0.326,0.621-0.483,0.941c1.072-0.43,1.888-1.102,2.823-1.475
	c2.191-0.875,4.438-1.615,6.669-2.391C39.372,13.604,39.915,13.561,39.485,12.746z M29.363,20.576
	c0.088,0.076,0.176,0.152,0.265,0.229c2.803-2.184,6.058-3.297,9.444-4.121c0.262-0.063,0.44-0.471,0.657-0.719
	c-0.081-0.078-0.163-0.156-0.244-0.234c-3.331,0.73-6.556,1.738-9.361,3.773C29.787,19.748,29.613,20.212,29.363,20.576z"/>
</svg>
