<?xml version="1.0" encoding="utf-8"?>
<!-- Generator: Adobe Illustrator 16.0.0, SVG Export Plug-In . SVG Version: 6.00 Build 0)  -->
<!DOCTYPE svg PUBLIC "-//W3C//DTD SVG 1.1//EN" "http://www.w3.org/Graphics/SVG/1.1/DTD/svg11.dtd">
<svg version="1.1" id="Calque_1" xmlns="http://www.w3.org/2000/svg" xmlns:xlink="http://www.w3.org/1999/xlink" x="0px" y="0px"
	 width="30px" height="21.512px" viewBox="0 0 30 21.512" enable-background="new 0 0 30 21.512" xml:space="preserve">
<path fill="#FFFFFF" d="M0.708,0.445c0.373-0.139,0.739-0.297,1.12-0.41c0.185-0.055,0.394-0.03,0.592-0.03
	C10.807,0.004,19.194,0,27.582,0.017c0.46,0.001,0.922,0.168,1.376,0.284c0.125,0.032,0.227,0.157,0.382,0.271
	c-0.142,0.133-0.24,0.234-0.347,0.325C24.457,4.79,19.917,8.68,15.387,12.582c-0.283,0.244-0.45,0.271-0.751,0.011
	C10.107,8.689,5.566,4.8,1.029,0.907C0.922,0.815,0.821,0.715,0.717,0.619C0.714,0.562,0.711,0.503,0.708,0.445z"/>
<path fill="#FFFFFF" d="M0.635,20.887c0.147-0.109,0.246-0.175,0.335-0.251c3.315-2.842,6.632-5.681,9.937-8.534
	c0.298-0.257,0.473-0.246,0.757,0.012c0.979,0.89,1.993,1.742,2.975,2.628c0.268,0.241,0.435,0.269,0.719,0.01
	c1.019-0.925,2.069-1.814,3.099-2.728c0.197-0.176,0.332-0.185,0.538-0.008c3.349,2.884,6.704,5.76,10.058,8.637
	c0.08,0.068,0.165,0.13,0.342,0.268c-0.323,0.183-0.55,0.364-0.809,0.443c-0.311,0.095-0.648,0.142-0.975,0.142
	c-8.403,0.008-16.807,0.006-25.21,0.007C1.779,21.512,1.198,21.398,0.635,20.887z"/>
<path fill="#FFFFFF" d="M0,1.942c0.192,0.155,0.305,0.241,0.412,0.333C3.606,5.055,6.797,7.838,10,10.608
	c0.299,0.259,0.271,0.384-0.013,0.625c-3.203,2.708-6.395,5.429-9.591,8.146C0.29,19.468,0.178,19.55,0,19.688
	C0,13.745,0,7.896,0,1.942z"/>
<path fill="#FFFFFF" d="M19.664,10.919C23.121,7.91,26.524,4.947,30,1.921c0,5.952,0,11.8,0,17.787
	C26.528,16.756,23.12,13.858,19.664,10.919z"/>
</svg>
